<svg width="43" height="58" viewBox="0 0 43 58" fill="none" xmlns="http://www.w3.org/2000/svg">
<circle cx="21.2667" cy="32.0933" r="21.2667" fill="url(#paint0_linear_13_116)"/>
<path d="M19.9085 42.3091V22.8479H20.9823V42.3091H19.9085ZM10.7148 33.1154V32.0417H30.176V33.1154H10.7148Z" fill="white"/>
<path d="M19.9085 42.3091H18.9085C18.9085 42.8614 19.3563 43.3091 19.9085 43.3091V42.3091ZM19.9085 22.8479V21.8479C19.3563 21.8479 18.9085 22.2956 18.9085 22.8479H19.9085ZM20.9823 22.8479H21.9823C21.9823 22.2956 21.5345 21.8479 20.9823 21.8479V22.8479ZM20.9823 42.3091V43.3091C21.5345 43.3091 21.9823 42.8614 21.9823 42.3091H20.9823ZM10.7148 33.1154H9.71482C9.71482 33.6677 10.1625 34.1154 10.7148 34.1154V33.1154ZM10.7148 32.0417V31.0417C10.1625 31.0417 9.71482 31.4894 9.71482 32.0417H10.7148ZM30.176 32.0417H31.176C31.176 31.4894 30.7283 31.0417 30.176 31.0417V32.0417ZM30.176 33.1154V34.1154C30.7283 34.1154 31.176 33.6677 31.176 33.1154H30.176ZM20.9085 42.3091V22.8479H18.9085V42.3091H20.9085ZM19.9085 23.8479H20.9823V21.8479H19.9085V23.8479ZM19.9823 22.8479V42.3091H21.9823V22.8479H19.9823ZM20.9823 41.3091H19.9085V43.3091H20.9823V41.3091ZM11.7148 33.1154V32.0417H9.71482V33.1154H11.7148ZM10.7148 33.0417H30.176V31.0417H10.7148V33.0417ZM29.176 32.0417V33.1154H31.176V32.0417H29.176ZM30.176 32.1154H10.7148V34.1154H30.176V32.1154Z" fill="white"/>
<defs>
<linearGradient id="paint0_linear_13_116" x1="20.8408" y1="-6.62273" x2="-19.0151" y2="33.432" gradientUnits="userSpaceOnUse">
<stop stop-color="#AEE9C9"/>
<stop offset="1" stop-color="#29A8DF"/>
</linearGradient>
</defs>
</svg>
