<svg width="15" height="15" viewBox="0 0 15 15" fill="none" xmlns="http://www.w3.org/2000/svg">
<path d="M10.625 1.87494L10.0947 1.34461L10.625 1.87494ZM11.875 1.35718V0.607178V1.35718ZM13.6428 3.12494H14.3928H13.6428ZM13.125 4.37494L13.6553 4.90527L13.125 4.37494ZM4.6875 12.8124L4.88484 13.536C5.01076 13.5017 5.12554 13.4351 5.21783 13.3428L4.6875 12.8124ZM1.25 13.7499L0.526427 13.5526C0.455611 13.8123 0.529357 14.09 0.71967 14.2803C0.909982 14.4706 1.18768 14.5443 1.44734 14.4735L1.25 13.7499ZM2.1875 10.3124L1.65717 9.78211C1.56488 9.87441 1.49827 9.98919 1.46393 10.1151L2.1875 10.3124ZM11.1553 2.40527C11.2498 2.31077 11.362 2.2358 11.4855 2.18465L10.9115 0.798831C10.606 0.925361 10.3285 1.11082 10.0947 1.34461L11.1553 2.40527ZM11.4855 2.18465C11.609 2.1335 11.7413 2.10718 11.875 2.10718V0.607178C11.5444 0.607178 11.217 0.672302 10.9115 0.798831L11.4855 2.18465ZM11.875 2.10718C12.0087 2.10718 12.141 2.1335 12.2645 2.18465L12.8385 0.798831C12.533 0.672302 12.2056 0.607178 11.875 0.607178V2.10718ZM12.2645 2.18465C12.388 2.2358 12.5002 2.31077 12.5947 2.40527L13.6553 1.34461C13.4215 1.11082 13.144 0.925361 12.8385 0.798831L12.2645 2.18465ZM12.5947 2.40527C12.6892 2.49978 12.7641 2.61198 12.8153 2.73546L14.2011 2.16144C14.0746 1.85597 13.8891 1.57841 13.6553 1.34461L12.5947 2.40527ZM12.8153 2.73546C12.8664 2.85894 12.8928 2.99129 12.8928 3.12494H14.3928C14.3928 2.79431 14.3276 2.46691 14.2011 2.16144L12.8153 2.73546ZM12.8928 3.12494C12.8928 3.2586 12.8664 3.39095 12.8153 3.51443L14.2011 4.08845C14.3276 3.78298 14.3928 3.45558 14.3928 3.12494H12.8928ZM12.8153 3.51443C12.7641 3.63791 12.6892 3.75011 12.5947 3.84461L13.6553 4.90527C13.8891 4.67148 14.0746 4.39392 14.2011 4.08845L12.8153 3.51443ZM12.5947 3.84461L4.15717 12.2821L5.21783 13.3428L13.6553 4.90527L12.5947 3.84461ZM4.49016 12.0889L1.05266 13.0264L1.44734 14.4735L4.88484 13.536L4.49016 12.0889ZM1.97357 13.9473L2.91107 10.5098L1.46393 10.1151L0.526427 13.5526L1.97357 13.9473ZM2.71783 10.8428L11.1553 2.40527L10.0947 1.34461L1.65717 9.78211L2.71783 10.8428Z" fill="url(#paint0_linear_9_6235)"/>
<defs>
<linearGradient id="paint0_linear_9_6235" x1="-4.4108" y1="7.73209" x2="7.62491" y2="19.7678" gradientUnits="userSpaceOnUse">
<stop stop-color="#6964DE"/>
<stop offset="1" stop-color="#FCA6E9"/>
</linearGradient>
</defs>
</svg>
